<?xml version="1.0" encoding="utf-8"?>
<!-- Generator: Adobe Illustrator 23.1.0, SVG Export Plug-In . SVG Version: 6.00 Build 0)  -->
<svg version="1.1" id="圖層_1" xmlns="http://www.w3.org/2000/svg" xmlns:xlink="http://www.w3.org/1999/xlink" x="0px" y="0px"
	 viewBox="0 0 1500 1200" style="enable-background:new 0 0 1500 1200;" xml:space="preserve">
<style type="text/css">
	.st0{fill:#FCF6EB;}
</style>
<path class="st0" d="M0,145.1c0-4.7,40.8-21.5,44-23c39.3-19.3,79.4-36.3,119.7-51.2c123.5-45.7,252-73.3,380.4-70.7
	c90,1.8,180.5,19,265.7,57.6c85.1,38.7,158.6,110.2,239,161.8c90.3,58,184.1,104.9,279.2,147.1c33.6,15.4,67.7,30.3,102.3,41.2
	c21.9,7,46.9,15.8,69.8,10.7V1200H0C0,1200,0,145.3,0,145.1z"/>
</svg>
