<?xml version="1.0" encoding="utf-8"?>
<!-- Generator: Adobe Illustrator 23.1.0, SVG Export Plug-In . SVG Version: 6.00 Build 0)  -->
<svg version="1.1" id="圖層_1" xmlns="http://www.w3.org/2000/svg" xmlns:xlink="http://www.w3.org/1999/xlink" x="0px" y="0px"
	 viewBox="0 100 1500 1200" style="enable-background:new 0 0 1500 1500;" xml:space="preserve">
<style type="text/css">
	.st0{fill:#FCF6EB;}
</style>
<path class="st0" d="M0,811.54c0-3.06,40.8-14.02,43.95-15.03c39.3-12.61,79.36-23.7,119.71-33.38
	C287.13,733.31,415.69,715.34,544.1,717c90.01,1.15,180.47,12.36,265.68,37.59c85.06,25.23,158.57,71.86,238.97,105.5
	c90.31,37.84,184.07,68.42,279.18,95.94c33.6,10.07,67.66,19.75,102.31,26.88c21.9,4.59,46.95,10.32,69.76,7.01v509.65H0
	C0,1499.57,0,811.67,0,811.54z"/>
</svg>
